<svg width="61" height="61" viewBox="0 0 61 61" fill="none" xmlns="http://www.w3.org/2000/svg">
<circle cx="30" cy="31" r="30" fill="#0041C2"/>
<path fill-rule="evenodd" clip-rule="evenodd" d="M34.8 12H19.2C18.54 12 18 12.54 18 13.2V30L22.8 25.2H34.8C35.46 25.2 36 24.66 36 24V13.2C36 12.54 35.46 12 34.8 12ZM33.6 14.4V22.8H21.804L21.096 23.508L20.4 24.204V14.4H33.6ZM38.4 16.8H40.8C41.46 16.8 42 17.34 42 18V36L37.2 31.2H24C23.34 31.2 22.8 30.66 22.8 30V27.6H38.4V16.8Z" fill="white"/>
<mask id="mask0_347_71122" style="mask-type:alpha" maskUnits="userSpaceOnUse" x="18" y="12" width="24" height="24">
<path fill-rule="evenodd" clip-rule="evenodd" d="M34.8 12H19.2C18.54 12 18 12.54 18 13.2V30L22.8 25.2H34.8C35.46 25.2 36 24.66 36 24V13.2C36 12.54 35.46 12 34.8 12ZM33.6 14.4V22.8H21.804L21.096 23.508L20.4 24.204V14.4H33.6ZM38.4 16.8H40.8C41.46 16.8 42 17.34 42 18V36L37.2 31.2H24C23.34 31.2 22.8 30.66 22.8 30V27.6H38.4V16.8Z" fill="white"/>
</mask>
<g mask="url(#mask0_347_71122)">
</g>
<path d="M24.068 46.276C23.744 47.176 22.832 47.752 21.704 47.752C20.072 47.752 18.932 46.48 18.932 44.788C18.932 43.096 20.072 41.848 21.704 41.848C22.76 41.848 23.636 42.376 23.996 43.18L25.256 42.568C24.8 41.332 23.36 40.48 21.704 40.48C19.28 40.48 17.48 42.352 17.48 44.788C17.48 47.236 19.28 49.12 21.704 49.12C23.42 49.12 24.908 48.196 25.34 46.852L24.068 46.276ZM29.7382 43.012C28.9582 43.012 28.3342 43.396 27.9622 44.056V40.6H26.6302V49H27.9622V45.82C27.9622 44.896 28.5382 44.296 29.4142 44.296C30.2662 44.296 30.8302 44.896 30.8302 45.82V49H32.1742V45.652C32.1742 44.02 31.2382 43.012 29.7382 43.012ZM38.3434 44.164C37.9234 43.432 37.2034 43.012 36.2674 43.012C34.7074 43.012 33.4594 44.368 33.4594 46.06C33.4594 47.752 34.7074 49.12 36.2674 49.12C37.2034 49.12 37.9234 48.7 38.3434 47.968V49H39.6874V43.132H38.3434V44.164ZM36.5554 47.848C35.5594 47.848 34.7674 47.056 34.7674 46.06C34.7674 45.076 35.5594 44.284 36.5554 44.284C37.5754 44.284 38.3434 45.052 38.3434 46.06C38.3434 47.08 37.5754 47.848 36.5554 47.848ZM44.6951 47.764C44.5751 47.8 44.3831 47.836 44.2391 47.836C43.6511 47.836 43.1711 47.428 43.1711 46.744V44.404H44.7071V43.132H43.1711V41.56H41.8391V43.132H40.7111V44.404H41.8391V46.804C41.8391 48.256 42.7511 49.084 44.0471 49.084C44.2991 49.084 44.5751 49.036 44.7671 48.94L44.6951 47.764Z" fill="white"/>
</svg>
